<svg width="27" height="26" viewBox="0 0 27 26" fill="none" xmlns="http://www.w3.org/2000/svg">
<path d="M25.4466 12.9998H9.48807M3.85511 12.9998H1.55078M3.85511 12.9998C3.85511 12.253 4.15178 11.5368 4.67985 11.0087C5.20792 10.4806 5.92414 10.1839 6.67095 10.1839C7.41775 10.1839 8.13397 10.4806 8.66204 11.0087C9.19011 11.5368 9.48678 12.253 9.48678 12.9998C9.48678 13.7466 9.19011 14.4628 8.66204 14.9909C8.13397 15.5189 7.41775 15.8156 6.67095 15.8156C5.92414 15.8156 5.20792 15.5189 4.67985 14.9909C4.15178 14.4628 3.85511 13.7466 3.85511 12.9998ZM25.4466 21.5338H18.0221M18.0221 21.5338C18.0221 22.2808 17.7247 22.9978 17.1965 23.526C16.6683 24.0542 15.952 24.3509 15.205 24.3509C14.4582 24.3509 13.742 24.053 13.2139 23.5249C12.6858 22.9968 12.3892 22.2806 12.3892 21.5338M18.0221 21.5338C18.0221 20.7868 17.7247 20.0711 17.1965 19.5429C16.6683 19.0147 15.952 18.718 15.205 18.718C14.4582 18.718 13.742 19.0147 13.2139 19.5427C12.6858 20.0708 12.3892 20.787 12.3892 21.5338M12.3892 21.5338H1.55078M25.4466 4.46574H21.436M15.803 4.46574H1.55078M15.803 4.46574C15.803 3.71893 16.0997 3.00271 16.6278 2.47464C17.1558 1.94657 17.8721 1.6499 18.6189 1.6499C18.9886 1.6499 19.3548 1.72274 19.6964 1.86424C20.0381 2.00575 20.3485 2.21317 20.61 2.47464C20.8714 2.73611 21.0788 3.04653 21.2204 3.38816C21.3619 3.7298 21.4347 4.09596 21.4347 4.46574C21.4347 4.83552 21.3619 5.20168 21.2204 5.54331C21.0788 5.88494 20.8714 6.19536 20.61 6.45683C20.3485 6.7183 20.0381 6.92572 19.6964 7.06723C19.3548 7.20874 18.9886 7.28157 18.6189 7.28157C17.8721 7.28157 17.1558 6.9849 16.6278 6.45683C16.0997 5.92876 15.803 5.21254 15.803 4.46574Z" stroke="black" stroke-width="1.5" stroke-miterlimit="10" stroke-linecap="round"/>
</svg>
